<svg id="Layer_1" data-name="Layer 1" xmlns="http://www.w3.org/2000/svg" viewBox="0 0 74.97 74.97"><rect width="74.97" height="74.97" style="fill:#fff"/><line x1="11.2" y1="12.35" x2="11.2" y2="21.16" style="fill:none;stroke:#000"/><path d="M277.32,410.49h0a6.56,6.56,0,0,1,6.23,6.23v1.33c0,6.26,0,6.23-6.23,6.23h0c-6.23,0-6.23,0-6.23-6.23v-1.33C271.09,413.94,273.88,410.49,277.32,410.49Z" transform="translate(-266.02 -389.33)" style="fill:none;stroke:#000"/><line x1="28.8" y1="12.35" x2="28.8" y2="21.16" style="fill:none;stroke:#000"/><path d="M294.92,410.49h0a6.55,6.55,0,0,1,6.22,6.23v1.33c0,6.26,0,6.23-6.22,6.23h0c-6.23,0-6.23,0-6.23-6.23v-1.33C288.69,413.94,291.48,410.49,294.92,410.49Z" transform="translate(-266.02 -389.33)" style="fill:none;stroke:#000"/><line x1="46.63" y1="12.35" x2="46.63" y2="21.16" style="fill:none;stroke:#000"/><path d="M312.74,410.49h0a6.56,6.56,0,0,1,6.23,6.23v1.33c0,6.26,0,6.23-6.23,6.23h0c-6.22,0-6.22,0-6.22-6.23v-1.33C306.52,413.94,309.3,410.49,312.74,410.49Z" transform="translate(-266.02 -389.33)" style="fill:none;stroke:#000"/><line x1="64.43" y1="12.35" x2="64.43" y2="21.16" style="fill:none;stroke:#000"/><path d="M330.54,410.49h0a6.56,6.56,0,0,1,6.23,6.23v1.33c0,6.26,0,6.23-6.23,6.23h0c-6.23,0-6.23,0-6.23-6.23v-1.33C324.31,413.94,327.1,410.49,330.54,410.49Z" transform="translate(-266.02 -389.33)" style="fill:none;stroke:#000"/><rect x="5.07" y="41.46" width="65.68" height="6.7" rx="1.38" style="fill:none;stroke:#000"/><rect x="5.07" y="5.65" width="65.68" height="6.7" rx="1.38" style="fill:none;stroke:#000"/><line x1="11.2" y1="48.16" x2="11.2" y2="56.97" style="fill:none;stroke:#000"/><path d="M277.32,446.3h0a6.55,6.55,0,0,1,6.23,6.23v1.33c0,6.26,0,6.23-6.23,6.23h0c-6.23,0-6.23,0-6.23-6.23v-1.33C271.09,449.75,273.88,446.3,277.32,446.3Z" transform="translate(-266.02 -389.33)" style="fill:none;stroke:#000"/><line x1="28.8" y1="48.16" x2="28.8" y2="56.97" style="fill:none;stroke:#000"/><path d="M294.92,446.3h0a6.55,6.55,0,0,1,6.22,6.23v1.33c0,6.26,0,6.23-6.22,6.23h0c-6.23,0-6.23,0-6.23-6.23v-1.33C288.69,449.75,291.48,446.3,294.92,446.3Z" transform="translate(-266.02 -389.33)" style="fill:none;stroke:#000"/><line x1="46.63" y1="48.16" x2="46.63" y2="56.97" style="fill:none;stroke:#000"/><path d="M312.74,446.3h0a6.55,6.55,0,0,1,6.23,6.23v1.33c0,6.26,0,6.23-6.23,6.23h0c-6.22,0-6.22,0-6.22-6.23v-1.33C306.52,449.75,309.3,446.3,312.74,446.3Z" transform="translate(-266.02 -389.33)" style="fill:none;stroke:#000"/><line x1="64.43" y1="48.16" x2="64.43" y2="56.97" style="fill:none;stroke:#000"/><path d="M330.54,446.3h0a6.55,6.55,0,0,1,6.23,6.23v1.33c0,6.26,0,6.23-6.23,6.23h0c-6.23,0-6.23,0-6.23-6.23v-1.33C324.31,449.75,327.1,446.3,330.54,446.3Z" transform="translate(-266.02 -389.33)" style="fill:none;stroke:#000"/></svg>